<mxfile host="app.diagrams.net" agent="Mozilla/5.0 (Windows NT 10.0; Win64; x64) AppleWebKit/537.36 (KHTML, like Gecko) Chrome/130.0.0.0 Safari/537.36" version="24.8.6">
  <diagram name="Page-1" id="2RgFvJZ56b2tRC2o2Oht">
    <mxGraphModel dx="794" dy="420" grid="1" gridSize="10" guides="1" tooltips="1" connect="1" arrows="1" fold="1" page="1" pageScale="1" pageWidth="850" pageHeight="1100" math="0" shadow="0">
      <root>
        <mxCell id="0" />
        <mxCell id="1" parent="0" />
        <mxCell id="X8aGXZLYWT5mc5Aefz2K-1" value="&amp;lt;&amp;lt;device&amp;gt;&amp;gt;&lt;div&gt;:DB Server&lt;/div&gt;" style="verticalAlign=top;align=left;spacingTop=8;spacingLeft=2;spacingRight=12;shape=cube;size=10;direction=south;fontStyle=0;html=1;whiteSpace=wrap;" vertex="1" parent="1">
          <mxGeometry x="140" y="90" width="180" height="120" as="geometry" />
        </mxCell>
        <mxCell id="X8aGXZLYWT5mc5Aefz2K-2" value="&amp;lt;&amp;lt;device&amp;gt;&amp;gt;&lt;div&gt;:Web Server&lt;/div&gt;" style="verticalAlign=top;align=left;spacingTop=8;spacingLeft=2;spacingRight=12;shape=cube;size=10;direction=south;fontStyle=0;html=1;whiteSpace=wrap;" vertex="1" parent="1">
          <mxGeometry x="510" y="210" width="180" height="120" as="geometry" />
        </mxCell>
        <mxCell id="X8aGXZLYWT5mc5Aefz2K-4" value="" style="endArrow=none;html=1;rounded=0;" edge="1" parent="1" source="X8aGXZLYWT5mc5Aefz2K-1" target="X8aGXZLYWT5mc5Aefz2K-2">
          <mxGeometry relative="1" as="geometry">
            <mxPoint x="300" y="260" as="sourcePoint" />
            <mxPoint x="460" y="260" as="targetPoint" />
          </mxGeometry>
        </mxCell>
        <mxCell id="X8aGXZLYWT5mc5Aefz2K-5" value="&amp;lt;&amp;lt;device&amp;gt;&amp;gt;&lt;div&gt;:User Client&lt;/div&gt;" style="verticalAlign=top;align=left;spacingTop=8;spacingLeft=2;spacingRight=12;shape=cube;size=10;direction=south;fontStyle=0;html=1;whiteSpace=wrap;" vertex="1" parent="1">
          <mxGeometry x="110" y="260" width="210" height="150" as="geometry" />
        </mxCell>
        <mxCell id="X8aGXZLYWT5mc5Aefz2K-6" value="" style="endArrow=none;html=1;rounded=0;" edge="1" parent="1" source="X8aGXZLYWT5mc5Aefz2K-5" target="X8aGXZLYWT5mc5Aefz2K-2">
          <mxGeometry relative="1" as="geometry">
            <mxPoint x="330" y="189" as="sourcePoint" />
            <mxPoint x="520" y="251" as="targetPoint" />
          </mxGeometry>
        </mxCell>
        <mxCell id="X8aGXZLYWT5mc5Aefz2K-7" value="«artifact»&lt;br&gt;&lt;b&gt;CSV File&lt;/b&gt;" style="html=1;whiteSpace=wrap;" vertex="1" parent="1">
          <mxGeometry x="175" y="140" width="110" height="50" as="geometry" />
        </mxCell>
        <mxCell id="X8aGXZLYWT5mc5Aefz2K-8" value="«artifact»&lt;br&gt;&lt;b&gt;Website&lt;/b&gt;" style="html=1;whiteSpace=wrap;" vertex="1" parent="1">
          <mxGeometry x="545" y="260" width="110" height="50" as="geometry" />
        </mxCell>
        <mxCell id="X8aGXZLYWT5mc5Aefz2K-9" value="«device»&lt;br&gt;&lt;b&gt;Application&lt;/b&gt;" style="html=1;whiteSpace=wrap;align=left;verticalAlign=top;" vertex="1" parent="1">
          <mxGeometry x="120" y="310" width="180" height="90" as="geometry" />
        </mxCell>
        <mxCell id="X8aGXZLYWT5mc5Aefz2K-11" value="«artifact»&lt;br&gt;&lt;b&gt;HTML5&lt;/b&gt;" style="html=1;whiteSpace=wrap;" vertex="1" parent="1">
          <mxGeometry x="180" y="350" width="120" height="50" as="geometry" />
        </mxCell>
      </root>
    </mxGraphModel>
  </diagram>
</mxfile>
